<?xml version="1.0" encoding="UTF-8" standalone="no"?>
<svg width="129px" height="128px" viewBox="0 0 129 128" version="1.1" xmlns="http://www.w3.org/2000/svg" xmlns:xlink="http://www.w3.org/1999/xlink">
    <!-- Generator: Sketch 39.1 (31720) - http://www.bohemiancoding.com/sketch -->
    <title>Page 1</title>
    <desc>Created with Sketch.</desc>
    <defs>
        <polygon id="path-1" points="128.0148 0.985 0 0.985 0 128.9999 128.0148 128.9999 128.0148 0.985"></polygon>
    </defs>
    <g id="Page-1" stroke="none" stroke-width="1" fill="none" fill-rule="evenodd">
        <g id="m-jardines-nuevo-paso-6-listo" transform="translate(-116.000000, -128.000000)">
            <g id="Page-1" transform="translate(116.000000, 127.000000)">
                <g id="Group-3" transform="translate(0.000000, 0.015000)">
                    <mask id="mask-2" fill="white">
                        <use xlink:href="#path-1"></use>
                    </mask>
                    <g id="Clip-2"></g>
                    <path d="M64.0078,7.9849 C32.5738,7.9849 6.9998,33.5579 6.9998,64.9919 C6.9998,96.4259 32.5738,121.9999 64.0078,121.9999 C95.4418,121.9999 121.0148,96.4259 121.0148,64.9919 C121.0148,33.5579 95.4418,7.9849 64.0078,7.9849 M64.0078,128.9999 C28.7138,128.9999 -0.0002,100.2859 -0.0002,64.9919 C-0.0002,29.6979 28.7138,0.9849 64.0078,0.9849 C99.3008,0.9849 128.0148,29.6979 128.0148,64.9919 C128.0148,100.2859 99.3008,128.9999 64.0078,128.9999" id="Fill-1" fill="#FF5722" mask="url(#mask-2)"></path>
                </g>
                <path d="M64.0078,106.0658 C52.2388,106.0658 41.1748,101.4828 32.8538,93.1608 C31.4868,91.7948 31.4868,89.5788 32.8538,88.2118 C34.2208,86.8448 36.4378,86.8458 37.8038,88.2118 C44.8028,95.2118 54.1088,99.0658 64.0078,99.0658 C73.9058,99.0658 83.2128,95.2118 90.2118,88.2118 C91.5788,86.8448 93.7948,86.8448 95.1618,88.2118 C96.5288,89.5788 96.5288,91.7948 95.1618,93.1618 C86.8408,101.4828 75.7758,106.0658 64.0078,106.0658" id="Fill-4" fill="#FF5722"></path>
                <path d="M68.1296,15.5855 C68.1296,15.5855 67.9366,15.6335 67.5736,15.7235 C67.2556,15.7975 66.7166,15.9595 66.1416,16.0845 C65.5406,16.2305 64.8646,16.3735 64.1086,16.5295 C63.3736,16.6705 62.5486,16.8285 61.7226,16.9445 C60.8736,17.0785 60.0266,17.1555 59.1316,17.2375 C58.2616,17.2815 57.3526,17.3355 56.4586,17.3035 C55.5636,17.2875 54.6406,17.2555 53.7576,17.1085 C52.8456,17.0165 51.9576,16.8265 51.0636,16.6205 C50.1606,16.4325 49.2916,16.1245 48.4116,15.8355 C47.5306,15.5475 46.6796,15.1675 45.8416,14.7455 C44.9956,14.3715 44.1796,13.9045 43.3956,13.4135 C42.6086,12.9375 41.8496,12.4425 41.1426,11.9135 C39.7326,10.8265 38.4926,9.7865 37.6096,8.8795 C37.1676,8.4525 36.8146,8.0155 36.5716,7.7615 C36.3286,7.4895 36.1976,7.3155 36.1976,7.3155 L35.9336,6.9645 C35.8196,6.8135 35.8496,6.5985 36.0016,6.4835 C36.0606,6.4395 36.1296,6.4165 36.1986,6.4155 C36.1986,6.4155 36.7296,6.4005 37.6576,6.3765 C38.5866,6.3775 39.9196,6.2535 41.5136,6.3605 C42.3126,6.3995 43.1766,6.4405 44.0916,6.4845 C45.0036,6.5695 45.9676,6.6505 46.9616,6.7695 C47.9546,6.8905 48.9726,7.0815 50.0116,7.2395 C51.0506,7.4035 52.0916,7.6585 53.1406,7.8655 C54.1806,8.1175 55.2066,8.4265 56.2226,8.7045 C57.2216,9.0435 58.2186,9.3305 59.1566,9.6925 C60.1016,10.0345 61.0016,10.4015 61.8366,10.7935 C62.6826,11.1565 63.4536,11.5695 64.1746,11.9245 C65.5996,12.6765 66.7196,13.4245 67.4906,13.9645 C67.8756,14.2435 68.1696,14.4575 68.3756,14.6255 C68.5726,14.7865 68.6786,14.8715 68.6786,14.8715 C68.8276,14.9945 68.8506,15.2145 68.7286,15.3645 C68.6786,15.4265 68.6126,15.4665 68.5416,15.4835 L68.1296,15.5855 Z" id="Fill-6" fill="#00BFA5"></path>
                <path d="M68.4834,15.6717 C68.4834,15.6717 68.3884,15.8467 68.2114,16.1757 C68.0524,16.4617 67.8094,16.9687 67.5154,17.4787 C67.2194,18.0207 66.8694,18.6177 66.4774,19.2817 C66.0864,19.9207 65.6484,20.6377 65.1794,21.3267 C64.7074,22.0447 64.1944,22.7227 63.6534,23.4407 C63.1004,24.1147 62.5294,24.8237 61.9044,25.4637 C61.2904,26.1147 60.6454,26.7767 59.9434,27.3307 C59.2614,27.9437 58.5234,28.4727 57.7694,28.9967 C57.0234,29.5377 56.2114,29.9737 55.4044,30.4297 C54.5994,30.8887 53.7454,31.2627 52.8694,31.5997 C52.0234,31.9737 51.1294,32.2627 50.2384,32.5127 C49.3564,32.7747 48.4804,33.0037 47.6134,33.1707 C45.8604,33.4827 44.2564,33.7007 42.9924,33.7437 C42.3784,33.7837 41.8174,33.7507 41.4664,33.7607 C41.1014,33.7567 40.8844,33.7367 40.8844,33.7367 L40.4474,33.6967 C40.2584,33.6787 40.1194,33.5117 40.1374,33.3227 C40.1444,33.2487 40.1744,33.1827 40.2194,33.1307 C40.2194,33.1307 40.5654,32.7287 41.1724,32.0247 C41.7974,31.3387 42.6024,30.2677 43.7544,29.1607 C44.3194,28.5957 44.9324,27.9837 45.5794,27.3367 C46.2564,26.7197 46.9644,26.0597 47.7214,25.4057 C48.4784,24.7517 49.3044,24.1267 50.1204,23.4637 C50.9404,22.8047 51.8294,22.2067 52.6884,21.5697 C53.5744,20.9697 54.4934,20.4187 55.3824,19.8537 C56.3054,19.3427 57.1884,18.7977 58.0874,18.3477 C58.9754,17.8777 59.8524,17.4587 60.7044,17.1057 C61.5424,16.7227 62.3664,16.4307 63.1134,16.1357 C64.6284,15.5867 65.9354,15.2617 66.8544,15.0537 C67.3184,14.9567 67.6764,14.8837 67.9384,14.8437 C68.1904,14.8057 68.3244,14.7857 68.3244,14.7857 C68.5154,14.7567 68.6944,14.8887 68.7234,15.0797 C68.7344,15.1587 68.7194,15.2347 68.6844,15.2987 L68.4834,15.6717 Z" id="Fill-8" fill="#00BFA5"></path>
                <path d="M62.9553,16.6403 C62.9553,16.6403 63.1053,16.4903 63.4263,16.2873 C63.7523,16.0983 64.2113,15.7743 64.8103,15.4983 C65.4013,15.2093 66.1313,14.9183 66.9543,14.6743 C67.7923,14.4153 68.7003,14.2443 69.7133,14.1083 C70.6953,14.0133 71.7823,13.9553 72.8683,14.0393 C73.9693,14.1093 75.0933,14.2833 76.2163,14.5723 C77.3623,14.8233 78.4483,15.2543 79.5523,15.7233 C80.6123,16.2403 81.6723,16.8173 82.6563,17.4903 C83.6153,18.1893 84.5663,18.9163 85.3913,19.7453 C86.2093,20.5803 86.9983,21.4253 87.6313,22.3673 C88.2813,23.2853 88.8343,24.2463 89.3163,25.1813 C89.7733,26.1393 90.1203,27.1123 90.4063,28.0283 C90.6843,28.9523 90.8873,29.8303 90.9873,30.6703 C91.0953,31.5013 91.1503,32.2493 91.1573,32.8923 C91.1823,33.5193 91.1213,34.0763 91.1123,34.4243 C91.0883,34.7853 91.0533,34.9953 91.0533,34.9953 L90.9863,35.4003 C90.9533,35.5953 90.7693,35.7273 90.5743,35.6943 C90.5023,35.6823 90.4383,35.6493 90.3883,35.6023 C90.3883,35.6023 90.0063,35.2413 89.3373,34.6103 C89.0033,34.2963 88.5983,33.9133 88.1333,33.4753 C87.6773,33.0283 87.1273,32.5623 86.5453,32.0363 C85.9603,31.5153 85.3263,30.9513 84.6553,30.3543 C83.9593,29.7873 83.2203,29.1973 82.4803,28.5593 C81.7293,27.9343 80.9123,27.3413 80.1043,26.7093 C79.2933,26.0823 78.4183,25.5183 77.5723,24.9143 C76.7213,24.3183 75.8413,23.7643 74.9883,23.1983 C74.1043,22.6873 73.2573,22.1383 72.3963,21.6863 C71.5373,21.2283 70.7193,20.7633 69.9173,20.3733 C69.1273,19.9543 68.3513,19.6273 67.6453,19.2983 C66.9233,19.0123 66.2753,18.7073 65.6833,18.4863 C65.0973,18.2483 64.5773,18.0713 64.1483,17.9233 C63.7203,17.7863 63.3753,17.6763 63.1523,17.6193 C62.9203,17.5583 62.7963,17.5263 62.7963,17.5263 C62.6143,17.4783 62.5053,17.2933 62.5523,17.1113 C62.5683,17.0513 62.5983,16.9993 62.6393,16.9583 L62.9553,16.6403 Z" id="Fill-10" fill="#00BFA5"></path>
                <path d="M62.6015,16.7263 C62.6015,16.7263 62.5905,16.5143 62.6565,16.1403 C62.7365,15.7723 62.8055,15.2143 63.0045,14.5863 C63.1885,13.9533 63.4635,13.2183 63.8365,12.4443 C64.2095,11.6513 64.6935,10.8643 65.2735,10.0223 C65.8645,9.2323 66.5525,8.3883 67.3445,7.6413 C68.1375,6.8733 69.0225,6.1593 69.9915,5.5223 C70.9475,4.8433 71.9975,4.3303 73.0875,3.8293 C74.1825,3.3923 75.3235,2.9953 76.4825,2.7203 C77.6445,2.4813 78.8225,2.2663 79.9905,2.2133 C81.1595,2.1703 82.3155,2.1543 83.4375,2.3193 C84.5545,2.4563 85.6375,2.6933 86.6535,2.9653 C87.6695,3.2723 88.6235,3.6693 89.4935,4.0743 C90.3645,4.4903 91.1505,4.9303 91.8385,5.4213 C92.5265,5.9003 93.1175,6.3633 93.5975,6.7893 C94.0785,7.1943 94.4495,7.6133 94.7005,7.8543 C94.9515,8.1143 95.0845,8.2823 95.0845,8.2823 L95.3385,8.6043 C95.4605,8.7593 95.4345,8.9843 95.2795,9.1063 C95.2215,9.1523 95.1535,9.1773 95.0855,9.1823 C95.0855,9.1823 94.5615,9.2223 93.6445,9.2933 C93.1875,9.3283 92.6315,9.3713 91.9945,9.4203 C91.3575,9.4573 90.6425,9.5503 89.8625,9.6273 C89.0825,9.7103 88.2385,9.7993 87.3455,9.8943 C86.4585,10.0273 85.5245,10.1773 84.5545,10.2963 C83.5875,10.4323 82.5985,10.6373 81.5885,10.8103 C80.5785,10.9883 79.5725,11.2563 78.5565,11.4763 C77.5425,11.7053 76.5405,11.9833 75.5485,12.2343 C74.5755,12.5433 73.5995,12.8013 72.6855,13.1353 C71.7695,13.4623 70.8745,13.7543 70.0465,14.0863 C69.2055,14.3883 68.4415,14.7423 67.7235,15.0443 C67.0255,15.3853 66.3635,15.6603 65.8025,15.9493 C65.2315,16.2233 64.7505,16.4883 64.3535,16.7063 C63.9635,16.9303 63.6505,17.1123 63.4585,17.2383 C63.2575,17.3703 63.1495,17.4403 63.1495,17.4403 C62.9925,17.5423 62.7815,17.4983 62.6785,17.3413 C62.6445,17.2893 62.6275,17.2313 62.6235,17.1733 L62.6015,16.7263 Z" id="Fill-12" fill="#00BFA5"></path>
                <path d="M37.3998,64.6814 C37.3998,67.1664 35.3848,69.1814 32.8998,69.1814 C30.4148,69.1814 28.3998,67.1664 28.3998,64.6814 C28.3998,62.1964 30.4148,60.1814 32.8998,60.1814 C35.3848,60.1814 37.3998,62.1964 37.3998,64.6814" id="Fill-14" fill="#FF5722"></path>
                <path d="M90.6156,64.6814 C90.6156,67.1664 92.6306,69.1814 95.1156,69.1814 C97.6006,69.1814 99.6156,67.1664 99.6156,64.6814 C99.6156,62.1964 97.6006,60.1814 95.1156,60.1814 C92.6306,60.1814 90.6156,62.1964 90.6156,64.6814" id="Fill-16" fill="#FF5722"></path>
            </g>
        </g>
    </g>
</svg>