<?xml version="1.0" encoding="UTF-8" standalone="no"?>
<svg width="168px" height="195px" viewBox="0 0 168 195" version="1.1" xmlns="http://www.w3.org/2000/svg" xmlns:xlink="http://www.w3.org/1999/xlink">
    <!-- Generator: Sketch 39.1 (31720) - http://www.bohemiancoding.com/sketch -->
    <title>Page 1</title>
    <desc>Created with Sketch.</desc>
    <defs>
        <polygon id="path-1" points="128.3302 0.665 0.3152 0.665 0.3152 128.6796 128.3302 128.6796 128.3302 0.665"></polygon>
        <polygon id="path-3" points="5.42101086e-20 0.8708 5.42101086e-20 47.9998 40.7846 47.9998 40.7846 0.8708 0 0.8708"></polygon>
    </defs>
    <g id="Page-1" stroke="none" stroke-width="1" fill="none" fill-rule="evenodd">
        <g transform="translate(0.000000, -1.000000)">
            <g id="Group-3" transform="translate(23.000000, 0.335000)">
                <mask id="mask-2" fill="white">
                    <use xlink:href="#path-1"></use>
                </mask>
                <g id="Clip-2"></g>
                <path d="M64.3232,7.6646 C32.8892,7.6646 7.3152,33.2376 7.3152,64.6716 C7.3152,96.1056 32.8892,121.6796 64.3232,121.6796 C95.7572,121.6796 121.3302,96.1056 121.3302,64.6716 C121.3302,33.2376 95.7572,7.6646 64.3232,7.6646 M64.3232,128.6796 C29.0292,128.6796 0.3152,99.9656 0.3152,64.6716 C0.3152,29.3776 29.0292,0.6646 64.3232,0.6646 C99.6162,0.6646 128.3302,29.3776 128.3302,64.6716 C128.3302,99.9656 99.6162,128.6796 64.3232,128.6796" id="Fill-1" fill="#FF5722" mask="url(#mask-2)"></path>
            </g>
            <path d="M87.3232,106.0655 C75.5542,106.0655 64.4902,101.4825 56.1692,93.1605 C54.8022,91.7945 54.8022,89.5785 56.1692,88.2115 C57.5362,86.8445 59.7532,86.8455 61.1192,88.2115 C68.1182,95.2115 77.4242,99.0655 87.3232,99.0655 C97.2212,99.0655 106.5282,95.2115 113.5272,88.2115 C114.8942,86.8445 117.1102,86.8445 118.4772,88.2115 C119.8442,89.5785 119.8442,91.7945 118.4772,93.1615 C110.1562,101.4825 99.0912,106.0655 87.3232,106.0655" id="Fill-4" fill="#FF5722"></path>
            <path d="M91.445,15.5852 C91.445,15.5852 91.252,15.6332 90.889,15.7232 C90.571,15.7972 90.032,15.9592 89.457,16.0842 C88.856,16.2302 88.18,16.3732 87.424,16.5292 C86.689,16.6702 85.864,16.8282 85.038,16.9442 C84.189,17.0782 83.342,17.1552 82.447,17.2372 C81.577,17.2812 80.668,17.3352 79.774,17.3032 C78.879,17.2872 77.956,17.2552 77.073,17.1082 C76.161,17.0162 75.273,16.8262 74.379,16.6202 C73.476,16.4322 72.607,16.1242 71.727,15.8352 C70.846,15.5472 69.995,15.1672 69.157,14.7452 C68.311,14.3712 67.495,13.9042 66.711,13.4132 C65.924,12.9372 65.165,12.4422 64.458,11.9132 C63.048,10.8262 61.808,9.7862 60.925,8.8792 C60.483,8.4522 60.13,8.0152 59.887,7.7612 C59.644,7.4892 59.513,7.3152 59.513,7.3152 L59.249,6.9642 C59.135,6.8132 59.165,6.5982 59.317,6.4842 C59.376,6.4392 59.445,6.4162 59.514,6.4152 C59.514,6.4152 60.045,6.4002 60.973,6.3762 C61.902,6.3772 63.235,6.2532 64.829,6.3602 C65.628,6.3992 66.492,6.4402 67.407,6.4842 C68.319,6.5692 69.283,6.6502 70.277,6.7692 C71.27,6.8902 72.288,7.0812 73.327,7.2392 C74.366,7.4032 75.407,7.6582 76.456,7.8652 C77.496,8.1172 78.522,8.4262 79.538,8.7042 C80.537,9.0432 81.534,9.3302 82.472,9.6922 C83.417,10.0342 84.317,10.4012 85.152,10.7932 C85.998,11.1562 86.769,11.5692 87.49,11.9242 C88.915,12.6762 90.035,13.4242 90.806,13.9642 C91.191,14.2432 91.485,14.4572 91.691,14.6252 C91.888,14.7862 91.994,14.8712 91.994,14.8712 C92.143,14.9942 92.166,15.2142 92.044,15.3642 C91.994,15.4262 91.928,15.4662 91.857,15.4832 L91.445,15.5852 Z" id="Fill-6" fill="#00BFA5"></path>
            <path d="M91.7988,15.6714 C91.7988,15.6714 91.7038,15.8464 91.5268,16.1754 C91.3678,16.4614 91.1248,16.9684 90.8308,17.4784 C90.5348,18.0214 90.1848,18.6174 89.7928,19.2814 C89.4018,19.9204 88.9638,20.6374 88.4948,21.3264 C88.0228,22.0444 87.5098,22.7224 86.9688,23.4404 C86.4158,24.1144 85.8448,24.8234 85.2198,25.4634 C84.6058,26.1144 83.9608,26.7764 83.2588,27.3304 C82.5768,27.9434 81.8388,28.4724 81.0848,28.9964 C80.3388,29.5374 79.5268,29.9734 78.7198,30.4294 C77.9148,30.8884 77.0608,31.2624 76.1848,31.5994 C75.3388,31.9734 74.4448,32.2624 73.5538,32.5124 C72.6718,32.7744 71.7958,33.0034 70.9288,33.1704 C69.1758,33.4824 67.5718,33.7004 66.3078,33.7434 C65.6938,33.7834 65.1328,33.7504 64.7818,33.7604 C64.4168,33.7564 64.1998,33.7364 64.1998,33.7364 L63.7628,33.6964 C63.5738,33.6784 63.4348,33.5114 63.4528,33.3224 C63.4598,33.2484 63.4898,33.1824 63.5348,33.1304 C63.5348,33.1304 63.8808,32.7284 64.4878,32.0244 C65.1128,31.3384 65.9178,30.2674 67.0698,29.1604 C67.6348,28.5954 68.2478,27.9834 68.8948,27.3364 C69.5718,26.7194 70.2798,26.0594 71.0368,25.4054 C71.7938,24.7514 72.6198,24.1264 73.4358,23.4634 C74.2558,22.8044 75.1448,22.2064 76.0038,21.5694 C76.8898,20.9694 77.8088,20.4184 78.6978,19.8534 C79.6208,19.3424 80.5038,18.7974 81.4028,18.3474 C82.2908,17.8774 83.1678,17.4584 84.0198,17.1054 C84.8578,16.7224 85.6818,16.4304 86.4288,16.1354 C87.9438,15.5864 89.2508,15.2614 90.1698,15.0534 C90.6338,14.9564 90.9918,14.8834 91.2538,14.8434 C91.5058,14.8054 91.6398,14.7854 91.6398,14.7854 C91.8308,14.7564 92.0098,14.8884 92.0388,15.0804 C92.0498,15.1584 92.0348,15.2344 91.9998,15.2984 L91.7988,15.6714 Z" id="Fill-8" fill="#00BFA5"></path>
            <path d="M86.2708,16.64 C86.2708,16.64 86.4208,16.49 86.7418,16.287 C87.0678,16.098 87.5268,15.774 88.1258,15.498 C88.7168,15.209 89.4468,14.918 90.2698,14.674 C91.1078,14.415 92.0158,14.244 93.0288,14.108 C94.0108,14.013 95.0978,13.955 96.1838,14.039 C97.2848,14.109 98.4088,14.283 99.5318,14.572 C100.6778,14.823 101.7638,15.254 102.8678,15.723 C103.9278,16.24 104.9878,16.817 105.9718,17.49 C106.9308,18.189 107.8818,18.916 108.7068,19.745 C109.5248,20.58 110.3138,21.425 110.9468,22.367 C111.5968,23.285 112.1498,24.246 112.6318,25.181 C113.0888,26.139 113.4358,27.112 113.7218,28.028 C113.9998,28.952 114.2028,29.83 114.3028,30.67 C114.4108,31.501 114.4658,32.249 114.4728,32.892 C114.4978,33.519 114.4368,34.076 114.4278,34.424 C114.4038,34.785 114.3688,34.995 114.3688,34.995 L114.3018,35.4 C114.2688,35.595 114.0848,35.727 113.8898,35.694 C113.8178,35.682 113.7538,35.649 113.7038,35.602 C113.7038,35.602 113.3218,35.241 112.6528,34.61 C112.3188,34.296 111.9138,33.913 111.4488,33.475 C110.9928,33.028 110.4428,32.562 109.8608,32.036 C109.2758,31.515 108.6418,30.951 107.9708,30.354 C107.2748,29.787 106.5358,29.197 105.7958,28.559 C105.0448,27.934 104.2278,27.341 103.4198,26.709 C102.6088,26.082 101.7338,25.518 100.8878,24.914 C100.0368,24.318 99.1568,23.764 98.3038,23.198 C97.4198,22.687 96.5728,22.138 95.7118,21.686 C94.8528,21.228 94.0348,20.763 93.2328,20.373 C92.4428,19.954 91.6668,19.627 90.9608,19.298 C90.2388,19.012 89.5908,18.707 88.9988,18.486 C88.4128,18.248 87.8928,18.071 87.4638,17.923 C87.0358,17.786 86.6908,17.676 86.4678,17.619 C86.2358,17.558 86.1118,17.526 86.1118,17.526 C85.9298,17.478 85.8208,17.293 85.8678,17.111 C85.8838,17.051 85.9138,16.999 85.9548,16.958 L86.2708,16.64 Z" id="Fill-10" fill="#00BFA5"></path>
            <path d="M85.9169,16.726 C85.9169,16.726 85.9059,16.514 85.9719,16.14 C86.0519,15.772 86.1209,15.214 86.3199,14.586 C86.5039,13.953 86.7789,13.218 87.1519,12.444 C87.5249,11.651 88.0089,10.863 88.5889,10.022 C89.1799,9.232 89.8679,8.388 90.6599,7.641 C91.4529,6.873 92.3379,6.159 93.3069,5.522 C94.2629,4.843 95.3129,4.33 96.4029,3.829 C97.4979,3.392 98.6389,2.995 99.7979,2.72 C100.9599,2.481 102.1379,2.266 103.3059,2.213 C104.4749,2.17 105.6309,2.154 106.7529,2.319 C107.8699,2.456 108.9529,2.693 109.9689,2.965 C110.9849,3.272 111.9389,3.669 112.8089,4.074 C113.6799,4.49 114.4659,4.93 115.1539,5.421 C115.8419,5.9 116.4329,6.363 116.9129,6.789 C117.3939,7.194 117.7649,7.613 118.0159,7.854 C118.2669,8.114 118.3999,8.282 118.3999,8.282 L118.6539,8.604 C118.7759,8.759 118.7499,8.984 118.5949,9.106 C118.5369,9.152 118.4689,9.177 118.4009,9.182 C118.4009,9.182 117.8769,9.222 116.9599,9.293 C116.5029,9.328 115.9469,9.371 115.3099,9.42 C114.6729,9.457 113.9579,9.55 113.1779,9.627 C112.3979,9.71 111.5539,9.799 110.6609,9.894 C109.7739,10.027 108.8399,10.177 107.8699,10.296 C106.9029,10.432 105.9139,10.637 104.9039,10.81 C103.8939,10.988 102.8879,11.256 101.8719,11.476 C100.8579,11.705 99.8559,11.982 98.8639,12.234 C97.8909,12.543 96.9149,12.801 96.0009,13.135 C95.0849,13.462 94.1899,13.754 93.3619,14.086 C92.5209,14.388 91.7569,14.742 91.0389,15.044 C90.3409,15.385 89.6789,15.66 89.1179,15.949 C88.5469,16.223 88.0659,16.488 87.6689,16.706 C87.2789,16.93 86.9659,17.112 86.7739,17.238 C86.5729,17.37 86.4649,17.44 86.4649,17.44 C86.3079,17.542 86.0969,17.498 85.9939,17.341 C85.9599,17.289 85.9429,17.231 85.9389,17.173 L85.9169,16.726 Z" id="Fill-12" fill="#00BFA5"></path>
            <path d="M60.7152,64.6811 C60.7152,67.1661 58.7002,69.1811 56.2152,69.1811 C53.7302,69.1811 51.7152,67.1661 51.7152,64.6811 C51.7152,62.1961 53.7302,60.1811 56.2152,60.1811 C58.7002,60.1811 60.7152,62.1961 60.7152,64.6811" id="Fill-14" fill="#FF5722"></path>
            <path d="M113.9311,64.6811 C113.9311,67.1661 115.9461,69.1811 118.4311,69.1811 C120.9161,69.1811 122.9311,67.1661 122.9311,64.6811 C122.9311,62.1961 120.9161,60.1811 118.4311,60.1811 C115.9461,60.1811 113.9311,62.1961 113.9311,64.6811" id="Fill-16" fill="#FF5722"></path>
            <g id="Group-20" transform="translate(0.000000, 147.335000)">
                <mask id="mask-4" fill="white">
                    <use xlink:href="#path-3"></use>
                </mask>
                <g id="Clip-19"></g>
                <path d="M23.8516,41.1768 C25.7866,41.1768 27.4716,41.0008 28.9056,40.6508 C30.3406,40.2998 31.7066,39.8168 33.0036,39.1988 L33.0036,30.8138 L27.2316,30.8138 C26.6786,30.8138 26.2436,30.6588 25.9246,30.3508 C25.6056,30.0428 25.4466,29.6648 25.4466,29.2188 L25.4466,24.3718 L40.7846,24.3718 L40.7846,43.0268 C39.6146,43.8768 38.3976,44.6148 37.1326,45.2418 C35.8676,45.8688 34.5186,46.3848 33.0826,46.7888 C31.6486,47.1928 30.1126,47.4948 28.4756,47.6978 C26.8386,47.8998 25.0736,47.9998 23.1826,47.9998 C19.8236,47.9998 16.7296,47.4158 13.9026,46.2468 C11.0756,45.0778 8.6306,43.4508 6.5686,41.3678 C4.5066,39.2848 2.8966,36.7978 1.7376,33.9058 C0.5796,31.0158 -0.0004,27.8588 -0.0004,24.4358 C-0.0004,20.9708 0.5626,17.7928 1.6896,14.9018 C2.8166,12.0108 4.4166,9.5238 6.4896,7.4398 C8.5616,5.3568 11.0756,3.7398 14.0306,2.5928 C16.9846,1.4448 20.3016,0.8708 23.9796,0.8708 C27.7426,0.8708 30.9996,1.4288 33.7526,2.5448 C36.5056,3.6608 38.8386,5.1128 40.7516,6.8978 L38.2656,10.7878 C37.7756,11.5738 37.1276,11.9678 36.3196,11.9678 C35.8096,11.9678 35.2886,11.7978 34.7576,11.4568 C34.0766,11.0538 33.3806,10.6498 32.6686,10.2458 C31.9556,9.8418 31.1696,9.4908 30.3096,9.1938 C29.4486,8.8958 28.4806,8.6518 27.4076,8.4598 C26.3336,8.2688 25.0956,8.1728 23.6926,8.1728 C21.4176,8.1728 19.3606,8.5558 17.5216,9.3218 C15.6836,10.0858 14.1156,11.1818 12.8186,12.6058 C11.5216,14.0308 10.5226,15.7408 9.8216,17.7398 C9.1196,19.7378 8.7686,21.9698 8.7686,24.4358 C8.7686,27.0928 9.1406,29.4578 9.8856,31.5308 C10.6286,33.6038 11.6706,35.3528 13.0106,36.7768 C14.3496,38.1998 15.9436,39.2898 17.7926,40.0448 C19.6426,40.7998 21.6626,41.1768 23.8516,41.1768" id="Fill-18" fill="#455A64" mask="url(#mask-4)"></path>
            </g>
            <path d="M54.4634,170.6543 L59.8204,170.6543 C61.4354,170.6543 62.8444,170.4533 64.0454,170.0493 C65.2464,169.6453 66.2344,169.0873 67.0104,168.3753 C67.7864,167.6623 68.3664,166.8173 68.7484,165.8403 C69.1314,164.8623 69.3224,163.7883 69.3224,162.6193 C69.3224,160.2803 68.5514,158.4843 67.0104,157.2293 C65.4694,155.9753 63.1154,155.3483 59.9474,155.3483 L54.4634,155.3483 L54.4634,170.6543 Z M54.4634,176.8083 L54.4634,194.8253 L45.8854,194.8253 L45.8854,148.7163 L59.9474,148.7163 C63.0934,148.7163 65.7884,149.0403 68.0314,149.6883 C70.2744,150.3373 72.1124,151.2463 73.5474,152.4153 C74.9834,153.5843 76.0354,154.9813 76.7044,156.6083 C77.3744,158.2343 77.7094,160.0253 77.7094,161.9813 C77.7094,163.5333 77.4804,165.0003 77.0234,166.3823 C76.5664,167.7633 75.9074,169.0173 75.0464,170.1443 C74.1854,171.2713 73.1224,172.2593 71.8584,173.1093 C70.5924,173.9603 69.1524,174.6403 67.5374,175.1503 C68.6214,175.7673 69.5564,176.6493 70.3434,177.7973 L81.8864,194.8253 L74.1694,194.8253 C73.4254,194.8253 72.7934,194.6763 72.2724,194.3793 C71.7514,194.0813 71.3104,193.6563 70.9484,193.1033 L61.2554,178.3403 C60.8934,177.7873 60.4944,177.3933 60.0594,177.1593 C59.6234,176.9253 58.9804,176.8083 58.1304,176.8083 L54.4634,176.8083 Z" id="Fill-21" fill="#455A64"></path>
            <path d="M116.3569,171.7705 C116.3569,169.2415 116.0169,166.9715 115.3359,164.9625 C114.6559,162.9545 113.6889,161.2525 112.4349,159.8605 C111.1799,158.4685 109.6549,157.4005 107.8589,156.6565 C106.0619,155.9125 104.0369,155.5405 101.7839,155.5405 L92.8239,155.5405 L92.8239,188.0005 L101.7839,188.0005 C104.0369,188.0005 106.0619,187.6295 107.8589,186.8845 C109.6549,186.1415 111.1799,185.0735 112.4349,183.6805 C113.6889,182.2885 114.6559,180.5875 115.3359,178.5785 C116.0169,176.5695 116.3569,174.3005 116.3569,171.7705 M125.1259,171.7705 C125.1259,175.1505 124.5629,178.2545 123.4359,181.0825 C122.3089,183.9095 120.7259,186.3425 118.6849,188.3835 C116.6439,190.4245 114.1889,192.0085 111.3189,193.1345 C108.4489,194.2615 105.2709,194.8255 101.7839,194.8255 L84.1829,194.8255 L84.1829,148.7155 L101.7839,148.7155 C105.2709,148.7155 108.4489,149.2855 111.3189,150.4215 C114.1889,151.5595 116.6439,153.1435 118.6849,155.1725 C120.7259,157.2035 122.3089,159.6325 123.4359,162.4585 C124.5629,165.2875 125.1259,168.3905 125.1259,171.7705" id="Fill-23" fill="#455A64"></path>
            <path d="M134.1187,148.7637 C134.3737,148.7957 134.6017,148.8597 134.8047,148.9547 C135.0067,149.0507 135.2027,149.1897 135.3937,149.3697 C135.5857,149.5507 135.7977,149.7897 136.0317,150.0867 L160.2347,180.9217 C160.1487,180.1787 160.0917,179.4507 160.0587,178.7387 C160.0267,178.0267 160.0117,177.3627 160.0117,176.7447 L160.0117,148.7157 L167.5687,148.7157 L167.5687,194.8257 L163.1367,194.8257 C162.4557,194.8257 161.8917,194.7187 161.4457,194.5057 C160.9997,194.2937 160.5637,193.9107 160.1397,193.3587 L136.0317,162.6507 C136.0957,163.3307 136.1427,164.0057 136.1757,164.6757 C136.2077,165.3457 136.2227,165.9567 136.2227,166.5087 L136.2227,194.8257 L128.6657,194.8257 L128.6657,148.7157 L133.1617,148.7157 C133.5447,148.7157 133.8637,148.7317 134.1187,148.7637" id="Fill-25" fill="#455A64"></path>
        </g>
    </g>
</svg>